<svg xmlns="http://www.w3.org/2000/svg" version="1.1" xmlns:xlink="http://www.w3.org/1999/xlink" xmlns:svgjs="http://svgjs.com/svgjs" width="1440" height="560" preserveAspectRatio="none" viewBox="0 0 1440 560"><g mask="url(&quot;#SvgjsMask1000&quot;)" fill="none"><rect width="1440" height="560" x="0" y="0" fill="#0e2a47"></rect><path d="M842.57 107.81L888.91 107.81L888.91 154.15L842.57 154.15z" fill="#037b0b"></path><path d="M1256.79 158.4L1308.01 158.4L1308.01 181.35L1256.79 181.35z" fill="#e73635"></path><path d="M389.2 166.33a28.41 28.41 0 1 0 4.62 56.63z" fill="#037b0b"></path><path d="M56.69 192.75a9.47 9.47 0 1 0 3.03 18.69z" fill="#e73635"></path><path d="M1002.58 298.05L1011.84 298.05L1011.84 307.31L1002.58 307.31z" stroke="#e73635"></path><path d="M235.47 323.86L279.21 323.86L279.21 338.75L235.47 338.75z" stroke="#037b0b"></path><path d="M1021.28 527.38L1051.77 527.38L1051.77 579.05L1021.28 579.05z" fill="#d3b714"></path><path d="M22.13 213.85a46.05 46.05 0 1 0 37.99-83.89z" fill="#037b0b"></path><path d="M757.63 546.18 a14.39 14.39 0 1 0 28.78 0 a14.39 14.39 0 1 0 -28.78 0z" stroke="#d3b714"></path><path d="M775.07 386.58L815.82 386.58L815.82 427.33L775.07 427.33z" stroke="#d3b714"></path><path d="M219.58 285.62L264.01 285.62L264.01 330.05L219.58 330.05z" stroke="#d3b714"></path><path d="M1329.69 499.75L1382.04 499.75L1382.04 552.02L1329.69 552.02z" fill="#037b0b"></path><path d="M325.05 461.87L335.3 461.87L335.3 491.9L325.05 491.9z" fill="#d3b714"></path><path d="M289.98 540.97L337.67 540.97L337.67 556.01L289.98 556.01z" stroke="#037b0b"></path><path d="M329.27 521.91a15.18 15.18 0 1 0 24.94 17.32z" stroke="#d3b714"></path><path d="M942.04 424.44a19.07 19.07 0 1 0-19.73-32.64z" stroke="#d3b714"></path><path d="M698 505.78a49.89 49.89 0 1 0-53.04 84.51z" fill="#037b0b"></path><path d="M685.38 319.05 a5.18 5.18 0 1 0 10.36 0 a5.18 5.18 0 1 0 -10.36 0z" fill="#037b0b"></path><path d="M857.14 287.16a49.32 49.32 0 1 0-60.15 78.18z" stroke="#d3b714"></path><path d="M939.87 394.87L976.83 394.87L976.83 436.11L939.87 436.11z" fill="#037b0b"></path><path d="M1048.72 125.6a43.38 43.38 0 1 0-56.88 65.51z" fill="#037b0b"></path><path d="M963.54 168.06L1017.14 168.06L1017.14 221.66L963.54 221.66z" fill="#e73635"></path><path d="M1171.24 290.45a17.34 17.34 0 1 0 33.72 8.1z" stroke="#e73635"></path><path d="M810.46 297.87 a15.88 15.88 0 1 0 31.76 0 a15.88 15.88 0 1 0 -31.76 0z" fill="#e73635"></path><path d="M962.37 27.86a36.96 36.96 0 1 0-55.49 48.85z" stroke="#e73635"></path><path d="M125.99 229.37 a39.88 39.88 0 1 0 79.76 0 a39.88 39.88 0 1 0 -79.76 0z" stroke="#037b0b"></path><path d="M1325.03 242.93L1352.27 242.93L1352.27 248.5L1325.03 248.5z" stroke="#d3b714"></path><path d="M1399.7 368.56L1444.96 368.56L1444.96 413.82L1399.7 413.82z" stroke="#d3b714"></path><path d="M663.98 406.06 a33.49 33.49 0 1 0 66.98 0 a33.49 33.49 0 1 0 -66.98 0z" stroke="#037b0b"></path><path d="M785.69 175.37 a52.49 52.49 0 1 0 104.98 0 a52.49 52.49 0 1 0 -104.98 0z" fill="#d3b714"></path><path d="M957.53 328.13 a35.13 35.13 0 1 0 70.26 0 a35.13 35.13 0 1 0 -70.26 0z" stroke="#037b0b"></path><path d="M542.73 211.96L594.52 211.96L594.52 256.12L542.73 256.12z" stroke="#e73635"></path><path d="M629.15 505.15L663.09 505.15L663.09 539.09L629.15 539.09z" stroke="#d3b714"></path></g><defs><mask id="SvgjsMask1000"><rect width="1440" height="560" fill="#ffffff"></rect></mask></defs></svg>